<svg width="270" height="95" viewBox="0 0 270 95" fill="none" xmlns="http://www.w3.org/2000/svg">
<g clip-path="url(#clip0_85_691)">
<path d="M14.9603 40.253H29.1139V58.82H25.9422L24.8605 56.4532C22.0921 58.4163 19.1587 59.4071 16.0787 59.4071C11.0003 59.4071 7.04019 57.8843 4.23514 54.8387C1.43009 51.7931 0.0183945 47.5 0.0183945 41.9409C0.0183945 36.3818 1.50342 32.1803 4.49181 28.8412C7.4802 25.5021 11.3669 23.8325 16.1887 23.8325C22.5321 23.8325 26.4005 27.0799 27.7756 33.5564L23.1005 35.7029V34.8773L23.0272 33.0059C22.7155 28.9513 20.8454 26.9331 17.417 26.9331C14.9053 26.9331 13.182 28.0156 12.247 30.1622C11.3303 32.3088 10.8536 36.3267 10.8536 42.1794C10.8536 47.6651 11.2203 51.3711 11.9719 53.3343C12.7236 55.2974 14.1353 56.2881 16.2437 56.2881C18.7187 56.2881 19.9471 54.9121 19.9471 52.1601V43.6838H14.9787V40.2346L14.9603 40.253Z" fill="#231F20"/>
<path d="M34.0273 58.82V24.4197H48.8042C52.6543 24.4197 55.716 25.2269 58.0261 26.8598C60.3178 28.4743 61.4728 30.6576 61.4728 33.3729C61.4728 37.5377 58.9978 40.253 54.066 41.5189C56.596 42.4546 58.2461 43.5004 58.9978 44.6196C59.7494 45.7387 60.2444 47.922 60.5195 51.1694C60.8311 55.0406 61.4911 57.5908 62.4628 58.8384H51.6276C50.9309 57.2422 50.6009 55.2424 50.6009 52.8573L50.5459 50.8208L50.4909 48.2522C50.4909 44.2893 48.8959 42.3079 45.7058 42.3079H44.0008V58.8384H34.0273V58.82ZM44.0008 39.4457H46.0175C49.7943 39.4457 51.6826 37.4643 51.6826 33.5197C51.6826 29.5751 49.7943 27.5937 46.0175 27.5937H44.0008V39.4457Z" fill="#231F20"/>
<path d="M80.6678 23.8142C90.678 23.8142 95.6831 29.7402 95.6831 41.6107C95.6831 53.4811 90.5863 59.4071 80.3928 59.4071C70.1993 59.4071 65.1025 53.3343 65.1025 41.207C65.1025 29.0798 70.291 23.8142 80.6678 23.8142V23.8142ZM80.3928 26.5662C78.5045 26.5662 77.2394 27.612 76.5794 29.6852C75.9194 31.7584 75.5894 35.7397 75.5894 41.6107C75.5894 47.4816 75.9194 51.4629 76.5794 53.5361C77.2394 55.6093 78.5228 56.6551 80.3928 56.6551C82.2629 56.6551 83.5462 55.6093 84.2062 53.5361C84.8662 51.4629 85.1962 47.4816 85.1962 41.6107C85.1962 35.7397 84.8662 31.7767 84.2062 29.6852C83.5462 27.5937 82.2629 26.5662 80.3928 26.5662Z" fill="#231F20"/>
<path d="M164.453 24.4197V27.8689H156.019V58.82H145.441V27.8872H136.952V24.438H164.453V24.4197Z" fill="#231F20"/>
<path d="M176.993 41.7208V58.8384H167.02V24.4197H176.993V38.2532H185.133V24.4197H195.107V58.82H185.133V41.7024H176.993V41.7208Z" fill="#231F20"/>
<path d="M88.3133 94.4128V60.0125H103.09C106.94 60.0125 110.002 60.8197 112.312 62.4526C114.604 64.0671 115.759 66.2504 115.759 68.9657C115.759 73.1305 113.284 75.8458 108.352 77.1117C110.882 78.0474 112.532 79.0932 113.284 80.2123C114.035 81.3315 114.53 83.5148 114.805 86.7622C115.117 90.6334 115.777 93.1836 116.749 94.4311H105.914C105.217 92.835 104.887 90.8352 104.887 88.4501L104.832 86.4136L104.777 83.845C104.777 79.8821 103.182 77.9006 99.9919 77.9006H98.2868V94.4311H88.3133V94.4128ZM98.2868 75.0385H100.304C104.08 75.0385 105.969 73.0571 105.969 69.1125C105.969 65.1679 104.08 63.1865 100.304 63.1865H98.2868V75.0385V75.0385Z" fill="#231F20"/>
<path d="M134.954 59.4072C144.964 59.4072 149.969 65.3333 149.969 77.2037C149.969 89.0741 144.873 95.0001 134.679 95.0001C124.486 95.0001 119.389 88.9273 119.389 76.8C119.389 64.6728 124.577 59.4072 134.954 59.4072V59.4072ZM134.679 62.1593C132.791 62.1593 131.526 63.205 130.866 65.2782C130.206 67.3514 129.876 71.3327 129.876 77.2037C129.876 83.0747 130.206 87.0559 130.866 89.1291C131.526 91.2023 132.809 92.2481 134.679 92.2481C136.549 92.2481 137.833 91.2023 138.493 89.1291C139.153 87.0559 139.483 83.0747 139.483 77.2037C139.483 71.3327 139.153 67.3698 138.493 65.2782C137.833 63.1867 136.549 62.1593 134.679 62.1593Z" fill="#231F20"/>
<path d="M177.14 80.5978L181.393 81.6986C181.467 82.5792 181.485 83.3314 181.485 83.9736C181.485 87.3127 180.275 89.9914 177.855 91.9912C175.435 93.991 172.19 94.9817 168.138 94.9817C157.945 94.9817 152.848 89.2391 152.848 77.7724C152.848 72.3233 154.333 67.9201 157.303 64.5259C160.273 61.1318 164.141 59.4438 168.908 59.4438C176.352 59.4438 180.055 63.0215 180.055 70.1768L175.783 72.1399C175.838 71.1308 175.857 70.3419 175.857 69.7915C175.857 64.7094 173.822 62.1775 169.77 62.1775C165.48 62.1775 163.316 67.5715 163.316 78.3411C163.316 87.6063 165.718 92.2297 170.521 92.2297C172.502 92.2297 174.152 91.4408 175.472 89.8629C176.792 88.2851 177.452 86.3036 177.452 83.9369C177.452 83.1847 177.342 82.0655 177.122 80.5794L177.14 80.5978Z" fill="#231F20"/>
<path d="M211.735 60.0125L203.155 70.8738L215.824 94.4128H204.714L196.647 79.35L195.217 80.9646V94.4311H185.243V60.0308H195.217V75.3504L207.06 60.0308H211.735V60.0125Z" fill="#231F20"/>
<path d="M240.648 60.0125V63.4617H228.328V73.8644H238.687V77.3136H228.328V90.9453H242.738V94.3945H218.354V59.9941H240.648V60.0125Z" fill="#231F20"/>
<path d="M270 60.0125V63.4617H261.566V94.4128H250.987V63.4617H242.499V60.0125H270Z" fill="#231F20"/>
<path d="M137.705 24.4197L144.268 0H140.125L132.241 30.1989H132.26L128.281 45.3718L123.148 24.4197H117.281L112.074 45.2984L106.849 24.4197H96.8389L105.694 58.82H112.202L117.061 40.0512L121.846 58.82H128.336L136 30.6759H136.018L137.21 26.2727L137.705 24.4197Z" fill="#231F20"/>
</g>
<defs>
<clipPath id="clip0_85_691">
<rect width="270" height="95" fill="white"/>
</clipPath>
</defs>
</svg>
