<svg width="36" height="36" viewBox="0 0 36 36" fill="none" xmlns="http://www.w3.org/2000/svg">
<path d="M17.7446 9.22719C16.06 9.22719 14.4133 9.72672 13.0126 10.6626C11.6119 11.5985 10.5202 12.9288 9.87554 14.4851C9.23087 16.0415 9.0622 17.754 9.39085 19.4062C9.71949 21.0585 10.5307 22.5761 11.7219 23.7673C12.9131 24.9585 14.4307 25.7697 16.0829 26.0983C17.7351 26.427 19.4477 26.2583 21.0041 25.6136C22.5604 24.969 23.8906 23.8773 24.8265 22.4766C25.7625 21.0759 26.262 19.4292 26.262 17.7446C26.262 15.4856 25.3646 13.3192 23.7673 11.7219C22.17 10.1246 20.0035 9.22719 17.7446 9.22719ZM17.7446 23.4229C16.6215 23.4229 15.5237 23.0898 14.5899 22.4659C13.6561 21.842 12.9283 20.9551 12.4986 19.9176C12.0688 18.88 11.9563 17.7383 12.1754 16.6368C12.3945 15.5353 12.9353 14.5236 13.7294 13.7294C14.5236 12.9353 15.5353 12.3945 16.6368 12.1754C17.7383 11.9563 18.88 12.0688 19.9176 12.4986C20.9551 12.9283 21.842 13.6561 22.4659 14.5899C23.0898 15.5237 23.4229 16.6215 23.4229 17.7446C23.4182 19.2491 22.8184 20.6907 21.7546 21.7546C20.6907 22.8184 19.2491 23.4182 17.7446 23.4229ZM25.5522 0H9.93697C7.30152 0 4.77401 1.04693 2.91047 2.91047C1.04693 4.77401 0 7.30152 0 9.93697V25.5522C0 28.1877 1.04693 30.7152 2.91047 32.5787C4.77401 34.4422 7.30152 35.4892 9.93697 35.4892H25.5522C28.1877 35.4892 30.7152 34.4422 32.5787 32.5787C34.4422 30.7152 35.4892 28.1877 35.4892 25.5522V9.93697C35.4892 7.30152 34.4422 4.77401 32.5787 2.91047C30.7152 1.04693 28.1877 0 25.5522 0ZM32.65 25.5522C32.65 26.4843 32.4664 27.4073 32.1098 28.2684C31.7531 29.1296 31.2302 29.912 30.5711 30.5711C29.912 31.2302 29.1296 31.7531 28.2684 32.1098C27.4073 32.4664 26.4843 32.65 25.5522 32.65H9.93697C9.00487 32.65 8.08189 32.4664 7.22075 32.1098C6.3596 31.7531 5.57714 31.2302 4.91804 30.5711C4.25895 29.912 3.73612 29.1296 3.37942 28.2684C3.02272 27.4073 2.83913 26.4843 2.83913 25.5522V9.93697C2.83913 8.05451 3.58694 6.24914 4.91804 4.91804C6.24914 3.58694 8.05451 2.83913 9.93697 2.83913H25.5522C26.4843 2.83913 27.4073 3.02272 28.2684 3.37942C29.1296 3.73612 29.912 4.25895 30.5711 4.91804C31.2302 5.57714 31.7531 6.3596 32.1098 7.22075C32.4664 8.08189 32.65 9.00487 32.65 9.93697V25.5522ZM29.1011 8.5174C29.1011 8.93855 28.9762 9.35023 28.7423 9.70041C28.5083 10.0506 28.1757 10.3235 27.7866 10.4847C27.3976 10.6458 26.9694 10.688 26.5564 10.6058C26.1433 10.5237 25.7639 10.3209 25.4661 10.0231C25.1683 9.72529 24.9655 9.34587 24.8833 8.93282C24.8012 8.51976 24.8433 8.09162 25.0045 7.70253C25.1657 7.31345 25.4386 6.98089 25.7888 6.74691C26.1389 6.51294 26.5506 6.38805 26.9718 6.38805C27.5365 6.38805 28.0781 6.61239 28.4774 7.01172C28.8768 7.41105 29.1011 7.95266 29.1011 8.5174Z" fill="black"/>
</svg>
