<svg width="32" height="33" viewBox="0 0 32 33" fill="none" xmlns="http://www.w3.org/2000/svg">
<path d="M1.86654 32.7446C1.33321 32.7446 0.888767 32.5669 0.533211 32.2113C0.177656 31.8557 -0.00012207 31.4113 -0.00012207 30.878V23.678C-0.00012207 23.2631 0.133211 22.8999 0.399878 22.5882C0.666544 22.2777 1.00729 22.078 1.4221 21.9891L7.55543 20.7446C7.97025 20.6854 8.39277 20.7221 8.82299 20.8549C9.25203 20.9888 9.59988 21.1891 9.86654 21.4557L14.0443 25.6335C16.2962 24.2706 18.3631 22.6557 20.2452 20.7891C22.1261 18.9224 23.6888 16.9224 24.9332 14.7891L20.6221 10.4335C20.3554 10.1669 20.1848 9.86285 20.1101 9.52152C20.0366 9.18137 20.0295 8.80389 20.0888 8.38907L21.2443 2.16685C21.3036 1.75204 21.4962 1.4113 21.8221 1.14463C22.148 0.877962 22.5184 0.744629 22.9332 0.744629H30.1332C30.6665 0.744629 31.111 0.922407 31.4665 1.27796C31.8221 1.63352 31.9999 2.07796 31.9999 2.6113C31.9999 6.43352 31.1477 10.1591 29.4434 13.7882C27.7403 17.4184 25.4885 20.6332 22.6879 23.4326C19.8885 26.2332 16.6742 28.4851 13.0452 30.1882C9.41499 31.8925 5.68877 32.7446 1.86654 32.7446ZM26.6221 11.4113C27.1258 10.2557 27.511 9.08537 27.7777 7.90018C28.0443 6.715 28.2517 5.515 28.3999 4.30018H24.4443L23.6888 8.47796L26.6221 11.4113ZM10.711 27.3224L7.73321 24.3446L3.55543 25.1891V29.1002C4.77025 29.0113 5.97795 28.8187 7.17854 28.5224C8.37795 28.2261 9.55543 27.8261 10.711 27.3224Z" fill="black"/>
</svg>
