<svg xmlns="http://www.w3.org/2000/svg" xmlns:xlink="http://www.w3.org/1999/xlink" viewBox="0,0,256,256" width="90px" height="90px" fill-rule="nonzero"><g fill="#000000" fill-rule="nonzero" stroke="none" stroke-width="1" stroke-linecap="butt" stroke-linejoin="miter" stroke-miterlimit="10" stroke-dasharray="" stroke-dashoffset="0" font-family="none" font-weight="none" font-size="none" text-anchor="none" style="mix-blend-mode: normal"><g transform="scale(8.53333,8.53333)"><path d="M22.99023,8.99023c-0.40692,0.00011 -0.77321,0.24676 -0.92633,0.62377c-0.15312,0.37701 -0.06255,0.80921 0.22907,1.09303l3.29297,3.29297h-23.58594c-0.36064,-0.0051 -0.69608,0.18438 -0.87789,0.49587c-0.18181,0.3115 -0.18181,0.69676 0,1.00825c0.18181,0.3115 0.51725,0.50097 0.87789,0.49587h23.58594l-3.29297,3.29297c-0.26124,0.25082 -0.36648,0.62327 -0.27512,0.97371c0.09136,0.35044 0.36503,0.62411 0.71547,0.71547c0.35044,0.09136 0.72289,-0.01388 0.97371,-0.27512l4.91211,-4.91211c0.24753,-0.18864 0.39314,-0.48176 0.3939,-0.79298c0.00077,-0.31122 -0.1434,-0.60505 -0.39,-0.79491c-0.00195,-0.00131 -0.0039,-0.00261 -0.00586,-0.00391l-4.91016,-4.91016c-0.18827,-0.19353 -0.4468,-0.30272 -0.7168,-0.30273z"></path></g></g></svg>