<svg width="40" height="35" viewBox="0 0 40 35" fill="none" xmlns="http://www.w3.org/2000/svg">
<path d="M39.1606 5.84054C39.052 5.58217 38.8694 5.36174 38.6357 5.207C38.4021 5.05227 38.1278 4.97017 37.8475 4.97105H32.4532C31.8058 3.84164 30.9072 2.8764 29.8269 2.15006C28.7466 1.42373 27.5136 0.955798 26.2234 0.782514C24.9332 0.609231 23.6205 0.735242 22.3868 1.15079C21.1531 1.56634 20.0317 2.26027 19.1093 3.17885C18.3017 3.96629 17.6596 4.90722 17.2208 5.94633C16.782 6.98545 16.5553 8.10179 16.554 9.22975V10.3122C9.332 8.43124 3.42305 2.61102 3.36982 2.54004C3.1842 2.35743 2.95194 2.22939 2.69843 2.16993C2.44493 2.11046 2.17996 2.12187 1.9325 2.20289C1.68583 2.2814 1.46494 2.42505 1.29316 2.6187C1.12138 2.81235 1.00508 3.04879 0.956551 3.30306C-0.587228 11.8559 1.98574 17.5875 4.41675 20.8879C5.63607 22.5569 7.11595 24.0188 8.79966 25.2176C6.08474 28.2874 1.89701 29.8845 1.86153 29.9022C1.66127 29.9765 1.48035 30.095 1.33225 30.2489C1.18416 30.4028 1.0727 30.5881 1.00618 30.7911C0.93966 30.994 0.9198 31.2094 0.948075 31.4211C0.976351 31.6328 1.05203 31.8354 1.16949 32.0138C1.31144 32.2267 1.84378 32.9188 3.13914 33.5753C4.75389 34.3738 6.88324 34.782 9.45621 34.782C21.9661 34.782 32.4354 25.1466 33.5001 12.7432L38.859 7.40206C39.0516 7.19681 39.1821 6.94123 39.2355 6.66489C39.2889 6.38855 39.2629 6.10274 39.1606 5.84054ZM31.1224 11.1107C30.8751 11.3559 30.7293 11.6854 30.7142 12.0334C29.9867 23.1947 20.653 31.9428 9.45621 31.9428C7.57528 31.9428 6.26218 31.6944 5.33946 31.3927C7.38009 30.2926 10.2192 28.3762 12.0647 25.6257C12.1718 25.4593 12.2429 25.2723 12.2735 25.0767C12.304 24.8811 12.2933 24.6813 12.2421 24.4901C12.1905 24.2969 12.0991 24.1167 11.9738 23.9609C11.8485 23.805 11.6921 23.6771 11.5146 23.5851C11.4968 23.5674 8.87064 22.201 6.61707 19.0957C4.06185 15.5823 2.97943 11.3059 3.4053 6.37287C6.20895 8.67967 11.5678 12.4415 17.7429 13.4707C17.9468 13.5035 18.1554 13.4919 18.3545 13.4368C18.5535 13.3816 18.7383 13.2843 18.8963 13.1513C19.0508 13.0161 19.1749 12.8498 19.2606 12.6633C19.3462 12.4767 19.3914 12.2741 19.3932 12.0689V9.22975C19.3958 7.92729 19.8461 6.66534 20.6686 5.65544C21.4911 4.64555 22.6358 3.94911 23.9108 3.68289C25.1858 3.41666 26.5135 3.59684 27.6714 4.1932C28.8293 4.78957 29.747 5.76588 30.2706 6.95844C30.3838 7.21211 30.568 7.42756 30.8011 7.57872C31.0341 7.72988 31.3059 7.81028 31.5837 7.81018H34.4228L31.1224 11.1107Z" fill="black"/>
</svg>
