<svg width="46" height="33" viewBox="0 0 46 33" fill="none" xmlns="http://www.w3.org/2000/svg">
<path d="M26.9843 16.7446L19.7738 20.8649V12.6243L26.9843 16.7446Z" fill="black" stroke="black" stroke-width="3.09022" stroke-linecap="round" stroke-linejoin="round"/>
<path d="M2.26254 18.201V15.2859C2.26254 9.32177 2.26254 6.33868 4.12698 4.42068C5.99347 2.50062 8.93124 2.41821 14.8047 2.25134C17.5859 2.17306 20.4289 2.11743 22.864 2.11743C25.297 2.11743 28.14 2.17306 30.9233 2.25134C36.7968 2.41821 39.7345 2.50062 41.599 4.42068C43.4655 6.33868 43.4655 9.32383 43.4655 15.2859V18.201C43.4655 24.1672 43.4655 27.1482 41.601 29.0683C39.7345 30.9863 36.7988 31.0708 30.9233 31.2356C28.1421 31.3159 25.2991 31.3715 22.864 31.3715C20.1771 31.3635 17.4904 31.3181 14.8047 31.2356C8.93124 31.0708 5.99347 30.9884 4.12698 29.0683C2.26254 27.1482 2.26254 24.1651 2.26254 18.2031V18.201Z" stroke="black" stroke-width="3.09022"/>
</svg>
